<svg width="41" height="39" viewBox="0 0 41 39" fill="none" xmlns="http://www.w3.org/2000/svg">
<path fill-rule="evenodd" clip-rule="evenodd" d="M2.59927 17.0403L20.3594 14.4126L38.4194 17.0403V35.1697C38.4194 36.0005 37.7048 36.6806 36.832 36.6806H4.18665C3.31384 36.6806 2.59927 36.0005 2.59927 35.1697V17.0403Z" fill="#8C3F0A"/>
<path fill-rule="evenodd" clip-rule="evenodd" d="M38.4194 17.0403V9.7381C38.4194 5.72158 34.9673 2.43591 30.7473 2.43591H10.2713C6.05136 2.43591 2.59927 5.72158 2.59927 9.7381V17.0403H38.4194Z" fill="#FFE082"/>
<path fill-rule="evenodd" clip-rule="evenodd" d="M6.96158 13.39V17.0411H8.19667H15.9961H25.0215H32.821H34.0561V13.39V9.73892C34.0561 8.41117 33.6788 7.16349 33.0217 6.08782C31.69 3.90953 29.209 2.43672 26.3849 2.43672H14.6336C11.8087 2.43672 9.32766 3.90953 7.99679 6.08782C7.33969 7.16349 6.96241 8.41117 6.96241 9.73892L6.96158 13.39Z" fill="#8C3F0A"/>
<path fill-rule="evenodd" clip-rule="evenodd" d="M26.385 2.43672H14.6338C11.8088 2.43672 9.32781 3.90953 7.99695 6.08782H33.0219C31.691 3.90953 29.21 2.43672 26.385 2.43672Z" fill="#713308"/>
<path fill-rule="evenodd" clip-rule="evenodd" d="M33.0217 6.0878H7.99596C7.33886 7.16347 6.96158 8.41115 6.96158 9.73889H34.0561C34.0569 8.41115 33.6797 7.16347 33.0217 6.0878Z" fill="#8C3F0A"/>
<path d="M34.0561 9.7389H6.96158V13.39H34.0561V9.7389Z" fill="#713308"/>
<path fill-rule="evenodd" clip-rule="evenodd" d="M34.0569 13.39H6.96158V17.0403H8.19667H15.9961H25.0224H32.8218H34.0569V13.39Z" fill="#8C3F0A"/>
<path fill-rule="evenodd" clip-rule="evenodd" d="M7.61708 20.062C8.26086 19.1473 8.45491 18.0589 8.19757 17.0403H6.96164H2.59927V21.9193C3.76773 22.1436 5.01615 21.9748 6.06552 21.4135C6.37366 21.2487 6.66516 21.0497 6.93249 20.8166C7.19983 20.5844 7.42803 20.3307 7.61708 20.062ZM38.4194 17.0403H34.057H32.8219C32.5646 18.0589 32.7578 19.1473 33.4024 20.062C33.5914 20.3307 33.8196 20.5844 34.087 20.8174C34.3543 21.0505 34.645 21.2487 34.954 21.4143C36.0033 21.9755 37.2517 22.1444 38.4202 21.9201V17.0403H38.4194ZM38.4194 31.8016C37.2509 31.5773 36.0025 31.7462 34.9531 32.3074C34.645 32.4723 34.3535 32.6712 34.0861 32.9043C33.8213 33.1349 33.5956 33.3862 33.4074 33.6518C32.7586 34.5681 32.5637 35.6596 32.8219 36.6814H36.832C37.7048 36.6814 38.4194 36.0013 38.4194 35.1705V31.8016ZM6.93249 32.9035C6.66516 32.6704 6.3745 32.4723 6.06552 32.3066C5.01615 31.7454 3.76773 31.5765 2.59927 31.8008V35.169C2.59927 35.9997 3.31384 36.6798 4.18665 36.6798H8.19673C8.45491 35.658 8.2592 34.5673 7.61125 33.6502C7.42303 33.3854 7.19733 33.1341 6.93249 32.9035Z" fill="#FFE082"/>
<path fill-rule="evenodd" clip-rule="evenodd" d="M25.0225 17.0403V22.6477C25.0225 24.1887 23.6983 25.4491 22.0793 25.4491H18.9404C17.3213 25.4491 15.9971 24.1887 15.9971 22.6477V17.0403H25.0225Z" fill="#FFE082"/>
<path fill-rule="evenodd" clip-rule="evenodd" d="M20.5094 18.8825C21.3905 18.8825 22.1051 19.5626 22.1051 20.4013C22.1051 20.6414 22.0468 20.8682 21.9427 21.0695V22.3671C21.9427 23.0488 21.3564 23.6069 20.6393 23.6069H20.3786C19.6624 23.6069 19.0752 23.0488 19.0752 22.3671V21.0695C18.9711 20.8682 18.9128 20.6407 18.9128 20.4013C18.9137 19.5626 19.6282 18.8825 20.5094 18.8825Z" fill="#FD912D"/>
<path fill-rule="evenodd" clip-rule="evenodd" d="M15.9961 22.6485V20.0628H7.61703C7.42797 20.3315 7.19978 20.5852 6.93244 20.8182C6.6651 21.0513 6.37444 21.2503 6.06546 21.4151V22.9839H16.017C16.0036 22.8729 15.9961 22.7611 15.9961 22.6485ZM33.4015 20.062H25.0224V22.6478C25.0224 22.7611 25.0149 22.8721 25.0016 22.9823H34.9531V21.4135C34.6449 21.2487 34.3534 21.0497 34.0861 20.8167C33.8187 20.5836 33.5905 20.3307 33.4015 20.062Z" fill="#713308"/>
<path fill-rule="evenodd" clip-rule="evenodd" d="M34.9531 22.9822H25.0007C24.8258 24.3671 23.5782 25.4491 22.0783 25.4491H18.9394C17.4394 25.4491 16.1919 24.3663 16.017 22.9822H6.06546V30.7307H34.9522V22.9822H34.9531Z" fill="#7E3909"/>
<path fill-rule="evenodd" clip-rule="evenodd" d="M34.9531 30.7307H6.06546V32.3066C6.37361 32.4715 6.6651 32.6704 6.93244 32.9035C7.19728 33.1341 7.42298 33.3854 7.6112 33.651H33.4073C33.5955 33.3854 33.8221 33.1341 34.0861 32.9035C34.3534 32.6704 34.6441 32.4723 34.9531 32.3066V30.7307Z" fill="#713308"/>
<path d="M38.4185 16.9808H2.59927V18.3934H38.4185V16.9808Z" fill="#FFE082"/>
</svg>
