<svg xmlns="http://www.w3.org/2000/svg" xml:space="preserve" viewBox="0 0 145 145" id="Teacher">
  <path fill="#89dc8e" d="M136.5 76.03c0 34.26-26.92 62.22-60.75 63.92-1.07.05-2.16.08-3.25.08-12.039 0-23.75-3.646-31.04-8.02-1.15-.63-2.27-1.3-3.36-2C20.3 118.65 8.5 98.72 8.5 76.03c0-29.303 19.702-53.673 45.55-61.3.01 0 .02 0 .02-.01a64.275 64.275 0 0 1 18.43-2.69c35.33 0 64 28.642 64 64z" class="colorf37c5a svgShape"></path>
  <path fill="#f7ce52" d="m65.319 32.848-.363-.535-.045-.307.995-2.577-3.886 1.399-6.891-1.174-2.072-1.658-.518-2.919-.981-1.052-.652 2.319-.974 1.376 1.382 6.2c5.74 4.228 3.921 2.897 8.565 6.269l2.982 4.041 1.698-1.941 1.61-5.292-.85-4.149z" class="colorf7bb52 svgShape"></path>
  <path fill="#465058" d="M75.48 126.83c.18 2.36.54 7.97.27 13.12-1.07.05-2.16.08-3.25.08-4.88 0-9.64-.55-14.21-1.59-.42-2.37-.88-5.21-.94-6.31 0 0-.61 2.86-1.28 5.77-5.725-1.516-11.523-4.038-14.61-5.89-1.15-.63-2.27-1.3-3.36-2-.36-13.697-3.074-18.759-.79-26.85.13-.45.2-.91.22-1.37.33-11.531-.154-8.146 3.38-18.19l11.01.41 3.2.12.28.01 2.32.09 9.95-.08h.14l2.56-.02 3.15 1.03 1.55-.87s.09.39.17 1.01c.02.15.03.32.05.5.11 1.28.07 3.17-.74 4.78 0 0 2.24 3.67.55 15.27 0 0-.1.54.08.97.826 1.452.574 3.54.71 4.54.12.79.38 2.92.32 5.5-.01.4.03.8.11 1.19 1.132 5.18-1.008 6.461-.84 8.78z" class="color464e58 svgShape"></path>
  <path fill="#ffe082" d="M115.747 50.316s.804 1.562-.138 2.436c0 0 .368 1.033-.988 2.068 0 0 .159 1.936-1.043 2.633-.003.003-.007.004-.01.006l-.004.003s-.436 0-.551.966c0 0 .115.505-1.31 1.079 0 0-3.224 2.16-5.116 1.332-1.842-2.812-1.165-1.636-3.178-5.56l.126-.961c1.941-3.165 2.991-4.289 4.603-4.698 1.276-.324 4.298-1.491 4.853-2.452 0 0 .505-.207.689.735l1.125.528c1.903-1.062 3.447.373.942 1.885z" class="colorfdda7f svgShape"></path>
  <path fill="#7cbddc" d="M107.717 62.182c-1.497.799-.121-.178-5.942 4.45.034 1.776-2.009 1.648-5.407 4.264-1.029 1.04-2.393 1.541-3.62 1.541-1.1.013-2.323 1.046-3.625.454-.821-.375-1.779.759-2.034 1.088-.405.525-1.293.572-1.929.459-4.975-1.403-4.441-.517-5.889-.231-1.123.224-1.871-.259-1.871-.259 0 2.269-1.229 3.921-1.562 4.921a1.446 1.446 0 0 0-.06.663c.134.946.433 1.763.561 2.08.035.088.08.171.127.253.979 1.734-1.233 3.431-1.233 3.431-1.141 1.492-3.985 2.051-3.985 2.051l-.116-.653c-4.498 1.492-10.696 1.118-10.696 1.118-3.869-.629-6.361-.443-6.361-.443l-3.915-.559-9.763-1.444-1.258-3.192c-.232-4.48-1.484-10.406-2.071-11.406a4.793 4.793 0 0 1-.661-2.017 2.73 2.73 0 0 0-.345-1.141c-.731-1.277-1.188-3.251-1.327-4.38-.369.829-2.016 2.344-2.704 2.936.933.719.889 1.818.594 2.763L17.77 67.697c-.017-2.107 1.683-5.23 2.36-6.39l5.152-10.149c3.771-9.854 6.725-10.989 8.028-12.676 2.889-3.742 4.394-3.207 5.811-3.927 2.307-1.179 3.733-1.595 4.517-1.739a5.99 5.99 0 0 0 1.777-.619c2.972-1.612 3.72-1.497 3.72-1.497 0 .566.875 2.576 1.125 3.087 0 0 1.92 3.818 2.761 8.499 0 0 1.887-.98 3.684-2.837.697-.721 1.956-2.495 2.929-2.8.099.09.207.169.317.245 1.676 1.146 2.36 3.102 2.392 4.295.041-.933.671-1.88 1.05-2.368a1.59 1.59 0 0 0 .232-.431c.769.316 1.476 1.114 1.476 1.114.712 0 1.618-.97 1.618-.97.403.338 2.269 3.354 2.328 3.448-.386-1.014-.603-2.542-.603-2.542-.215-1.855-1.078-2.265-1.078-2.265-.108-.67-.617-1.837-.617-1.837 7.905 2.552 8.933 7.429 10.355 9.375 3.024 4.151 3.535 9.02 3.621 10.676a.94.94 0 0 0 .545.808c1.521.701 3.874 2.192 3.874 2.192 2.111.912 1.78 2.733 1.78 2.733 1.023-.969 1.701-.128 2.842-.235.706-.068.537-.701.678-1.358.41-1.869 2.181-.492 2.181-.492 1.015.788 1.418.414 2.1-.197 1.342-1.215 1.534-.316 1.534-.316 2.761-1.447 7.272-4.207 7.272-4.207.434 1.001 1.15 3.678 4.186 7.865z" class="color7ccedc svgShape"></path>
  <path fill="#38a4d8" d="M62.167 42.479s-1.138-3.441-4.175-4.506c.524-.568 1.17-1.176 1.643-1.324 1 .902 1.899 1.293 2.487 3.311a5.886 5.886 0 0 1 .194.921c.003.037.006.048.006.048a2.304 2.304 0 0 1 .017.168c.01.136-.153 1.246-.172 1.382z" class="color50c6cc svgShape"></path>
  <path fill="#38a4d8" d="M65.104 39.504s-1.869.762-2.936 2.975c.505-3.668 1.096-3.089 1.46-4.09.768.317 1.476 1.115 1.476 1.115zM62.181 42.483c-.754 2.933 1.546 11.135 2.197 14.141.823 3.791 1.469 7.541 2.042 11.367.315 2.103 1.776 8.647 1.274 19.493l-.028-.001c.026-2.295.025-1.721.011-2.984-.002-.375-.002-.78-.018-1.212-.068-2.363-.1-2.753-.209-4.564-.546-6.933-1.027-8.881-1.281-10.695-.523-3.726-1.121-7.412-1.949-11.369-.63-3.023-2.856-11.221-2.065-14.181l.026.005z" class="color50c6cc svgShape"></path>
  <path fill="#38a4d8" d="m62.502 41.87-.077-.162-.257-.052-.199.329c-.701 4.978.892 8.201.892 8.201-1.018-4.882-.359-8.316-.359-8.316z" class="color50c6cc svgShape"></path>
  <path fill="#25323b" d="M67.42 92.828s-10.104-.523-12.741-1.317l.252-3.725s5.314 1.36 10.837 1.193c0 0 6.528.168 7.721-1.193 0 0 .558-.154 1.802-1.991.467 5.667-2.571 7.816-7.871 7.033z" class="color25313b svgShape"></path>
  <path fill="#394249" d="M57.353 87.828h1.238v5.503h-1.238z" class="color394149 svgShape"></path>
  <path fill="#89dc8e" d="m66.878 93.15.353-4.241 1.37-.035-.001-.42-1.568.04a.209.209 0 0 0-.203.192c-.013.151-.433 4.725-.33 4.832.106.109 1.672-.018 1.824-.026l-.023-.418-1.422.076z" class="colorf37c5a svgShape"></path>
  <path fill="#ffffff" d="M67.659 91.103h-.716c-.185 0-.185.28 0 .28h.716a.14.14 0 0 0 .14-.14.14.14 0 0 0-.14-.14z" class="colorffffff svgShape"></path>
  <circle cx="63.348" cy="90.694" r=".325" fill="#ffffff" class="colorffffff svgShape"></circle>
  <path fill="#ffffff" d="M70.087 91.243c0 .429.649.429.649 0 0-.43-.649-.43-.649 0zM65.006 90.904c0 .429.649.429.649 0s-.649-.429-.649 0zM72.305 90.454c-.429 0-.429.649 0 .649.427 0 .43-.649 0-.649z" class="colorffffff svgShape"></path>
  <path fill="#394249" d="M67.527 92.334c.6 2.509.282 5.226-1.254 7.716l-.027-.051c2.928-.132 3.201-3.547 3.166-7.134l.014-.001c.21 3.339.026 7.161-3.238 7.199 1.463-2.236 1.736-5.076 1.326-7.727l.013-.002z" class="color394149 svgShape"></path>
  <path fill="#38a4d8" d="m106.587 62.807-4.811 3.825c.034 1.776-2.009 1.648-5.407 4.264a5.183 5.183 0 0 1-3.486 1.538c3.606-1.353 3.71-3.19 6.527-4.675a1.923 1.923 0 0 0 1.029-1.577c.061-.695.385-.609 6.148-3.375zM76.29 43.412c1.808 6.836 1.288 12.17.174 18.963l-.018.035a.056.056 0 0 0 .018-.042c-.09 1-.307 1.411.08 3.611l.126.719c.082.48.164.959.236 1.441.255 1.693.617 4.322.503 5.811l-.014-.001c.068-1.483-.377-4.332-.622-5.789l-.244-1.437-.129-.718c-.179-1-.352-2.08-.067-3.648l-.001.011c0-.017.009-.038.02-.05l-.018.035c1.222-6.95 1.664-11.436-.058-18.938l.014-.003z" class="color50c6cc svgShape"></path>
  <g fill="#38a4d8" class="color50c6cc svgShape">
    <path d="M86.866 61.319c.041-.126.061-.197.061-.197a3.58 3.58 0 0 1-.061.197zM78.679 64.388s-1.433-1.051-2.412-.891c.003-.063.089-1.091.131-1.134.794.159 1.882.652 3.023 1.994.773 1.393 4.937-4.487 6.657-3.794-3.647.885-4.79 5.824-7.399 3.825zM86.866 61.319c-.14.432-.52 1.518-1.128 2.642-1.909 3.535-2.133 8.458-6.466 10.246-1.123.224-1.871-.259-1.871-.259.059-.895-.073-2.334-.274-3.841.801-.198 3.337-1.109 5.205-4.896 0 0 .775-1.709 3.226-2.799-3.677 3.103-3.154 5.808-6.862 8.08 0 0-.666.435-.431 1.351a.609.609 0 0 0 .537.456c1.266.102 1.868-1.431 3.498-2.809 2.185-1.85 1.959-3.497 3.49-6.053.413-.69.869-1.515 1.076-2.118z" fill="#14181b" class="color000000 svgShape"></path>
  </g>
  <path fill="none" d="M95.699 64.044c-.386-1.064-1.203-3.04-2.45-4.658a2.148 2.148 0 0 1-.619-.348s-1.771-1.377-2.181.492c1.036.674 2.859 2.169 4.202 4.96a.57.57 0 0 0 1.048-.446z"></path>
  <path fill="#38a4d8" d="M76.616 61.089c.125-.766.229-1.499.322-2.195.652-.833 1.332-1.256 1.797-1.463 1.625-.731.841-5.051-.229-6.627 2.396 1.694 2.755 6.997-1.89 10.285zM96.89 58.19c.361 1.744 1.615 4.469 4.232 7.24-3.087-2.816-4.089-5.966-4.232-7.24zM77.272 75.1c-.416 2.226-1.1 2.771-1.433 3.771-1.018-3.294-1.549-8.705-1.549-8.705.943 2.959 2.196 4.328 2.982 4.934zM49.657 33.254c-.432-1.282-.851-1.668-.851-1.668-.849.122-1.889.839-1.953.882.97-1.482 2.283-1.769 2.283-1.769 0 .26.424 1.463.527 1.728.04.489-.006.827-.006.827zM34.653 63.376c6.141-5.57 3.398-15.853 3.299-17.546-.363-4.813-2.96-6.608-5.53-6.391l-.002-.014c2.717-.323 5.425 1.481 5.703 7.035l-.002-.014c1.281 5.516.972 13.205-3.46 16.941l-.008-.011z" class="color50c6cc svgShape"></path>
  <path fill="#38a4d8" d="M44.066 71.636c-.197-.048-6.078-1.504-8.887-6.261a17 17 0 0 1-.435-2.071c1.995-1.79 3.044-4.193 3.548-6.623.351.842.646 2.403-.91 3.978 0 0 4.649 6.531 14.446 10.577 0 0-11.5-2.378-15.085-9.512 0 0-.446.618-1.352 1.387.001.001 1.936 6.283 8.675 8.525zM32.138 64.38l.474 1.267c-.341.313-.582.52-.582.52s-1.668-1.282-2.182-6.879c.039.225.664 3.853 1.697 4.871 0 0 5.414-8.75 4.86-20.289 0 .001 2.047 11.939-4.267 20.51z" class="color50c6cc svgShape"></path>
  <path fill="#dab74b" d="m54.854 74.733-3.791-.19L31.81 76.85l.894 18.105 23.225-1.624z" class="colorda664b svgShape"></path>
  <path fill="#ffffff" d="m55.634 93.071-2.857.2-1.705-18.448 3.518.176z" class="colorffffff svgShape"></path>
  <path fill="#38a4d8" d="m34.502 89.519-.641 1.204.524 1.1s.571.552 1.04 0l-.923-2.304z" class="color50c6cc svgShape"></path>
  <path fill="#394249" d="M66.247 100.031c-1.058 8.803-2.84 17.019-8.893 32.096 5.717-16.072 6.896-20.071 8.893-32.096zM41.61 132.1l-.15-.09c-.152-1.444-3.02-20.918.21-36.19h.01c-2.955 15.668-.47 31.887-.07 36.28z" class="color394149 svgShape"></path>
  <path fill="#394249" d="M44.951 96.145c-.293-.285-4.428 9.966-4.557 10.364.855-3.639 4.412-10.521 4.557-10.364z" class="color394149 svgShape"></path>
  <path fill="#ffe082" d="M46.554 91.698c-.682-.484-2.422-1.63-2.458-.777a.678.678 0 0 0 .143.431c.285.394.485.868.459 1.348-.039.699.84.731 1.312 1.326.111-.009 3.617-.254 3.727-.261.423 1-.207 1.638-.66 2.545-.531 1.04-1.484 1.291-2.651 1.321-7.242.254-8.34.004-9.172-1.485 0 0-2.016-2.826-3.017-5.718l1.439-3.175 1.376-.688.969-.87.579-.162c1.481.293 2.638.698 4.545.927 1.531.182 1.912 1.394 4.178 2.29 1 .394.688.469 2.463 1.022.169.052.33.13.464.243 1.374 1.157-1.535 3.219-3.696 1.683z" class="colorfdda7f svgShape"></path>
  <path fill="#ffffff" d="m48.686 89.628-.626.36c-.339 2.169 1.684 1.949 2.052.796.15-.469.007-1.033-1.426-1.156z" class="colorffffff svgShape"></path>
  <path fill="#f7ce52" d="M44.298 91.435c-.63-.214-1.52-.659-1.727-1.495 0 0 .552.246 1.525.98-.01.226.086.346.202.515zM48.639 95.602c-.808-1.781-1.921-.149-2.578-1.581l3.233-.227c.079 1.247-.655 1.808-.655 1.808zM46.568 97.625l-.143.004c-.67-.413-1.697-.48-2.212-1.12.392.3 1.671.768 1.807.768.232.105.43.24.548.348zM42.388 97.68l-.404-.004c-.248-.103-.81-.38-.974-.586.543.295.829.371 1.378.59z" class="colorf7bb52 svgShape"></path>
  <path fill="#f2f2f2" d="M111.61 55.921c-.008.019-1.616 3.642-1.628 3.659.388-.813-.818-1.416-1.246-.632l1.272-2.882 1.602-.145zM126.426 20.578a.748.748 0 0 0-.927.405L112.76 49.834v.001l-.196.446-.001.001c-.101.227-.646 1.46-.738 1.672.81-.17.504-.119 1.404-.23l.221.057c.194-.433.922-2.075 1.105-2.486v-.001l12.312-27.706a.748.748 0 0 0-.441-1.01z" class="colorf2f2f2 svgShape"></path>
  <path fill="#ffe082" d="M112.471 50.28c.693-.766.992-1.452 1.207-2.377l-.038-.167c-.379.307-.963.989-1.328 1.393.051.653.019.41.159 1.151zM114.707 49.662c-.37-.343-.075-1.765.567-1.159 0 0-.089.889-.098.89-.009.001-.383.186-.383.186l-.086.083z" class="colorfdda7f svgShape"></path>
  <path fill="#ffe082" d="M113.679 51.679c-1.033-.289-1.374-2.007.069-2.116 1.132-.092 1.242.3 1.124.796-.021.088-.293.616-.348.826-.054.209.155.075-.059.239-.214.164-.786.255-.786.255z" class="colorfdda7f svgShape"></path>
  <path fill="none" d="m112.569 53.762-.061.142M110.884 54.084l-.033.076"></path>
  <path fill="#e0e3e7" d="M109.351 58.583c-.924 0-.924 1.397 0 1.397s.924-1.397 0-1.397z" class="colordad9d8 svgShape"></path>
  <path fill="#ffffff" d="M110.709 55.114s-.911.451-1.358.047c0 0-.09-.667 1.292-.677l.066.63zM111.348 52.234l.056 1.188c-2.003.664-2.197-.849-.056-1.188zM114.29 51.289l.331-1.419c-2.307-.658-1.902 1.553-.331 1.419z" class="colorffffff svgShape"></path>
  <path fill="#ffe082" d="M69.702 12.838c-.071-.677-.285-.748-.651-1.461-.366-.713-.407-.499-.407-.499s-1.757-1.461-2.305-2.173c-.548-.713-1.126-.499-1.91-1.212s-1.71-.392-2.173-.677c-.463-.285-3.919-.214-4.204-.214s-4.169 1.461-4.169 1.461l-3.456 6.983v2.601c.925 2.746.57 7.447.57 7.447.743 5.284 6.104 6.923 9.321 7.432 6.158.973 8.767-6.428 8.734-12.491l.946-.765c-.431-2.26-.345-1.82.025-3.724.289-1.487-.216-1.708-.321-2.708z" class="colorfdda7f svgShape"></path>
  <path fill="#ffe082" d="M48.516 21.32c.796 5.198 4.616 4.615 3.819-.585-.795-5.198-4.615-4.616-3.819.585zM70.224 23.995c-1.658 4.99-5.326 3.774-3.667-1.218 1.658-4.991 5.325-3.775 3.667 1.218z" class="colorfdda7f svgShape"></path>
  <g fill="#f7ce52" class="colorf7bb52 svgShape">
    <path d="M114.728 49.701c-.66-.128-1.564-.258-1.818.376-.265.548-.018 1.299 1.201 1.697-4.864 0-5.325 1.739-3.533 2.55-.69.094-1.388.246-1.388.952.156.783.91.903 1.706.801 1-.134 1.113-.495 1.998.464.257.281.484.589.684.91-.003.003-.007.004-.01.006a7.223 7.223 0 0 0-.233-.327c-.378-.504-1.109-1.341-1.704-1.135-2.924.951-3.193-1.527-1.485-1.741-1.442-.882-.748-2.52 3.34-2.592-.514-.269-.76-.71-.723-1.328l-.001.006c.027-.549.492-1.02 1.893-.696-.218-.466-.105-.856.151-1.212-.298.448-.3.859-.098 1.23l.001.001a.668.668 0 0 0 .019.038z" fill="#14181b" class="color000000 svgShape"></path>
    <path d="M110.347 54.29c1.011-.482 3.623-1.123 4.273.528-.732-1.347-2.752-.944-4.273-.528zM113.748 51.717c.666-.026 1.786.349 1.861 1.034-.222-.578-1.267-.849-1.861-1.034zM114.69 49.672c.243-.157.843.061 1.057.643-.328-.253-.61-.644-1.057-.643zM109.129 50.867c1.347.5.843 1.514 2.878-.201.966-.938 1.326-1.597 1.671-2.762-.612 3.042-3.233 4.287-3.82 3.466l.002.002c-.163-.203-.497-.389-.731-.505z" fill="#14181b" class="color000000 svgShape"></path>
  </g>
  <path fill="#f2f2f2" d="M53.022 42.287s1.887-.981 3.684-2.837c.685-.707 1.973-2.5 2.929-2.801-7.918-7.11-7.611-6.549-8.262-7.627-.477-.79-.89-1.834-.467-2.679 0 0-2.051 1.305-1.771 4.358 0 0 .177 1.146 1.126 3.087 0-.001 1.92 3.818 2.761 8.499zM65.103 39.504c.712 0 1.618-.971 1.618-.971.41.345 2.33 3.452 2.33 3.452-.388-1.014-.604-2.546-.604-2.546-.216-1.855-1.079-2.265-1.079-2.265-.158-.977-1.457-4.374-2.458-5.169-.37.082-1.133 5.961-1.284 6.385.771.315 1.477 1.114 1.477 1.114z" class="colorf2f2f2 svgShape"></path>
  <path fill="#465058" d="M69.345 10.594s-.955-.9-1.36-1.817c-.862-1.947-3.355-3.68-6.442-3.705-4.697-.617-7.48 1.759-8.481 2.42-1.11.733-3.965 3.272-3.562 9.837l.926.321s-.036-.855 1.176-.784c0 0 .655.109 1.105-.961.141-.336.401-.608.724-.776 3.135-1.635.384-3.038 1.32-5.058 1.332-2.877 3.637-.327 7.451-.65a1.1 1.1 0 0 1 .855.291c2.216 2.111 4.601.183 5.738 1.976.521.821.96 2.31.406 4.903-.064.302-.021.621.136.886.189.319.306 1.024-.285 2.561 0 0 .472.178 1.149 0 0-.002 1.354-7.164-.856-9.444z" class="color464e58 svgShape"></path>
  <path fill="#7cbddc" d="M39.418 85.693c-1.15.189-5.1 3.534-5.033 6.129l-5.523-5.756c-.024 1.422-1.911-.419-1.911-.419-.914-.997.023-1.846-1.518-2.768-2.982-1.784-4.288-1.541-4.215-3.026.015-.349.003-.462-.008-.768-.052-1.759.593-2.061.593-2.061-2.724-2.64-4.013-6.669-4.032-9.327l14.855 1.232c-.285.916-.99 1.654-.586 2.35.101.173.173.33.222.47.132.372.141.759-.162 1.008a.541.541 0 0 0-.158.215.505.505 0 0 0 .063.494c2.34 3.13 1.642 3.584 2.375 4.796.744 1.226.377 2.305.377 2.305 1.795 1.469 4.661 5.126 4.661 5.126z" class="color7ccedc svgShape"></path>
  <path fill="#38a4d8" d="M34.757 80.568c-.101-.005-.268.015-.368.023-2.955.483-4.367 2.824-5.527 5.476 1.53-4.348 4.142-5.691 5.895-5.499zM31.909 73.09a.296.296 0 0 0-.004.052c-.954.205-2.849.713-5.503 1.895-2.602 1.158-2.934 2.431-5.193 4.049-.052-1.759.593-2.061.593-2.061s.254.046.482.187c.451.281.733.035 1.039-.277 2.149-2.213 6.471-3.546 8.586-3.845zM31.979 72.897a.415.415 0 0 0-.038.076c-2.661-.228-5.307 1.028-5.383 1.063 2.054-2.177 4.621-1.443 5.421-1.139zM32.292 72.499c-2.497-1.731-6.348-1.503-8.898-2.282-1.263-.382-3.388-.516-4.551-.508 2.944-.771 4.098.197 7.139.737 1.265.227 4.839-.203 6.279 1.303.118.331.106.572.031.75z" class="color50c6cc svgShape"></path>
  <path fill="#38a4d8" d="M28.992 83.316s-2.771-5.945-4.355-6.843c0 0 .66 3.22 3.247 7.443-.001 0-.872-2.415 1.108-.6z" class="color50c6cc svgShape"></path>
</svg>
